<svg width="26" height="30" viewBox="0 0 26 30" fill="none" xmlns="http://www.w3.org/2000/svg">
<g clip-path="url(#clip0_1_32)">
<path d="M13.3806 8.07137C9.86029 8.07137 7.02077 11.008 7.02077 14.6487C7.02077 18.2894 9.86029 21.226 13.3806 21.226C16.901 21.226 19.7405 18.2894 19.7405 14.6487C19.7405 11.008 16.901 8.07137 13.3806 8.07137ZM13.3806 18.9248C11.1057 18.9248 9.24589 17.0071 9.24589 14.6487C9.24589 12.2902 11.1002 10.3726 13.3806 10.3726C15.6611 10.3726 17.5154 12.2902 17.5154 14.6487C17.5154 17.0071 15.6556 18.9248 13.3806 18.9248ZM21.4841 7.80233C21.4841 8.65526 20.8198 9.33646 20.0006 9.33646C19.1759 9.33646 18.5172 8.64954 18.5172 7.80233C18.5172 6.95512 19.1814 6.26819 20.0006 6.26819C20.8198 6.26819 21.4841 6.95512 21.4841 7.80233ZM25.6963 9.35936C25.6022 7.30431 25.1483 5.48395 23.6926 3.98416C22.2424 2.48437 20.4822 2.01498 18.4951 1.91194C16.4471 1.79172 10.3086 1.79172 8.26064 1.91194C6.27906 2.00925 4.51889 2.47865 3.06315 3.97844C1.60742 5.47823 1.15907 7.29858 1.05944 9.35363C0.9432 11.4717 0.9432 17.82 1.05944 19.938C1.15353 21.9931 1.60742 23.8134 3.06315 25.3132C4.51889 26.813 6.27353 27.2824 8.26064 27.3854C10.3086 27.5057 16.4471 27.5057 18.4951 27.3854C20.4822 27.2881 22.2424 26.8187 23.6926 25.3132C25.1428 23.8134 25.5967 21.9931 25.6963 19.938C25.8125 17.82 25.8125 11.4774 25.6963 9.35936ZM23.0505 22.2106C22.6188 23.3326 21.783 24.197 20.6925 24.6492C19.0597 25.3189 15.1851 25.1644 13.3806 25.1644C11.5762 25.1644 7.69605 25.3132 6.06873 24.6492C4.98384 24.2027 4.14804 23.3383 3.71076 22.2106C3.06315 20.5219 3.2126 16.5148 3.2126 14.6487C3.2126 12.7825 3.06869 8.76975 3.71076 7.08678C4.1425 5.9648 4.97831 5.10042 6.06873 4.64819C7.70159 3.97844 11.5762 4.133 13.3806 4.133C15.1851 4.133 19.0652 3.98416 20.6925 4.64819C21.7774 5.09469 22.6132 5.95908 23.0505 7.08678C23.6981 8.77547 23.5487 12.7825 23.5487 14.6487C23.5487 16.5148 23.6981 20.5276 23.0505 22.2106Z" fill="white"/>
</g>
<defs>
<clipPath id="clip0_1_32">
<rect width="24.7974" height="29.3088" fill="white" transform="translate(0.976257)"/>
</clipPath>
</defs>
</svg>
